<?xml version="1.0" standalone="no"?>
<!DOCTYPE svg PUBLIC "-//W3C//DTD SVG 20010904//EN"
 "http://www.w3.org/TR/2001/REC-SVG-20010904/DTD/svg10.dtd">
<svg version="1.0" xmlns="http://www.w3.org/2000/svg"
 width="260.000000pt" height="260.000000pt" viewBox="0 0 260.000000 260.000000"
 preserveAspectRatio="xMidYMid meet">
<metadata>
Created by potrace 1.11, written by Peter Selinger 2001-2013
</metadata>
<g transform="translate(0.000000,260.000000) scale(0.100000,-0.100000)"
fill="#000000" stroke="none">
<path d="M757 2281 c-296 -175 -542 -322 -548 -328 -6 -6 -8 -254 -7 -656 l3
-646 538 318 c296 175 542 322 548 328 6 6 8 254 7 656 l-3 646 -538 -318z"/>
<path d="M1856 1630 c-296 -176 -543 -323 -547 -327 -5 -5 -8 -300 -7 -655 l3
-646 538 318 c296 175 543 322 548 327 5 5 8 272 7 655 l-3 646 -539 -318z"/>
</g>
</svg>
